<svg xmlns="http://www.w3.org/2000/svg" viewBox="0 0 240 160" role="img" aria-label="DrugEye">
  <title>DrugEye</title>
  <defs>
    <linearGradient id="de-pill-top" x1="0.5" y1="0" x2="0.5" y2="1">
      <stop offset="0%" stop-color="#0f766e"/>
      <stop offset="100%" stop-color="#14b8a6"/>
    </linearGradient>
    <linearGradient id="de-pill-bot" x1="0.5" y1="0" x2="0.5" y2="1">
      <stop offset="0%" stop-color="#99f6e4"/>
      <stop offset="100%" stop-color="#5eead4"/>
    </linearGradient>
    <linearGradient id="de-drop" x1="0.3" y1="0" x2="0.7" y2="1">
      <stop offset="0%" stop-color="#fdba74"/>
      <stop offset="55%" stop-color="#f97316"/>
      <stop offset="100%" stop-color="#c2410c"/>
    </linearGradient>
  </defs>

  <path d="M 20 80 C 50 20, 190 20, 220 80 C 190 140, 50 140, 20 80 Z"
        fill="none" stroke="#0f766e" stroke-width="8"
        stroke-linejoin="round" stroke-linecap="round"/>

  <path d="M 102 50 A 18 18 0 0 1 138 50 L 138 80 L 102 80 Z"
        fill="url(#de-pill-top)" stroke="#115e59" stroke-width="2.5"
        stroke-linejoin="round"/>
  <path d="M 102 80 L 138 80 L 138 110 A 18 18 0 0 1 102 110 Z"
        fill="url(#de-pill-bot)" stroke="#115e59" stroke-width="2.5"
        stroke-linejoin="round"/>
  <line x1="101" y1="80" x2="139" y2="80" stroke="#115e59"
        stroke-width="2.5" stroke-linecap="round"/>
  <path d="M 108 55 Q 114 48 122 50" stroke="rgba(255,255,255,0.55)"
        stroke-width="2" stroke-linecap="round" fill="none"/>

  <g transform="translate(192 14) rotate(-6 12 40)">
    <path d="M 12 0 C 12 0, -6 30, -6 48 A 18 18 0 0 0 30 48 C 30 30, 12 0, 12 0 Z"
          fill="url(#de-drop)" stroke="#c2410c"
          stroke-width="1.5" stroke-linejoin="round"/>
    <ellipse cx="4" cy="42" rx="4" ry="7" fill="rgba(255,255,255,0.45)"/>
  </g>
</svg>
